<?xml version="1.0" encoding="UTF-8"?>
<svg id="Capa_1" data-name="Capa 1" xmlns="http://www.w3.org/2000/svg" viewBox="0 0 233.8 180.36">
  <defs>
    <style>
      .cls-1 {
        fill: #1d1d1b;
        font-family: Montserrat-Regular, Montserrat;
        font-size: 11.35px;
      }

      .cls-2 {
        letter-spacing: 0em;
      }

      .cls-3 {
        letter-spacing: -.02em;
      }

      .cls-4 {
        fill: #15375c;
        stroke-width: 0px;
      }
    </style>
  </defs>
  <text class="cls-1" transform="translate(45.91 34.8)"><tspan x="0" y="0">0 a </tspan><tspan class="cls-2" x="20.16" y="0">2</tspan><tspan x="26.58" y="0">0</tspan><tspan class="cls-2" x="0" y="30.27">2</tspan><tspan x="6.42" y="30.27">0 a 40</tspan><tspan x="0" y="60.54">40 a 60</tspan><tspan x="0" y="90.81">60 a 80</tspan><tspan x="0" y="121.08">80 a </tspan><tspan class="cls-3" x="27.4" y="121.08">+</tspan><tspan x="33.74" y="121.08">100</tspan></text>
  <path class="cls-4" d="m126.99,27.97c-1.9.52-3.82,1-5.68,1.66-.5.18-.98.39-1.46.63l-2.67-2.54c.35-.19.71-.37,1.07-.54,2.57-1.21,5.27-1.97,8.04-2.56,1.01-.21,1.9.36,2.09,1.31.19.95-.4,1.77-1.39,2.05Z"/>
  <path class="cls-4" d="m116.55,34.78c.48.46,1,.89,1.56,1.26l-3.52,1.65c-.23-.2-.45-.43-.65-.67-1.86-2.15-1.84-4.75.05-6.87.92-1.03,2.02-1.8,3.21-2.44l2.67,2.54c-.74.37-1.45.79-2.17,1.18-.42.23-.79.6-1.13.97-.77.82-.82,1.6,0,2.38Z"/>
  <path class="cls-4" d="m125.78,56.62c-1.9.52-3.82,1-5.68,1.66-.5.18-.98.39-1.46.63l-2.67-2.54c.35-.19.71-.37,1.07-.54,2.57-1.21,5.27-1.97,8.04-2.56,1.01-.21,1.9.36,2.09,1.31.19.95-.4,1.77-1.39,2.05Z"/>
  <path class="cls-4" d="m115.34,63.43c.48.46,1,.89,1.56,1.26l-3.52,1.65c-.23-.2-.45-.43-.65-.67-1.86-2.15-1.84-4.75.05-6.87.92-1.03,2.02-1.8,3.21-2.44l2.67,2.54c-.74.37-1.45.79-2.17,1.18-.42.23-.79.6-1.13.97-.77.82-.82,1.6,0,2.38Z"/>
  <path class="cls-4" d="m124.53,67.65l-1.79,3.08c-2.31-.6-4.56-1.39-6.68-2.53-.97-.52-1.88-1.11-2.68-1.87l3.52-1.65c.28.19.57.37.86.53,2.13,1.16,4.43,1.88,6.77,2.44Z"/>
  <path class="cls-4" d="m133.67,69.16l-.34,3.41h0c-2.48-.25-4.94-.6-7.39-1.1-1.07-.22-2.14-.46-3.19-.74l1.79-3.08c.55.13,1.1.25,1.65.37,2.48.52,4.98.89,7.49,1.14Z"/>
  <path class="cls-4" d="m127.19,85.65c-1.9.52-3.82,1-5.68,1.66-.5.18-.98.39-1.46.63l-2.67-2.54c.35-.19.71-.37,1.07-.54,2.57-1.21,5.27-1.97,8.04-2.56,1.01-.21,1.9.36,2.09,1.31.19.95-.4,1.77-1.39,2.05Z"/>
  <path class="cls-4" d="m116.75,92.46c.48.46,1,.89,1.56,1.26l-3.52,1.65c-.23-.2-.45-.43-.65-.67-1.86-2.15-1.84-4.75.05-6.87.92-1.03,2.02-1.8,3.21-2.44l2.67,2.54c-.74.37-1.45.79-2.17,1.18-.42.23-.79.6-1.13.97-.77.82-.82,1.6,0,2.38Z"/>
  <path class="cls-4" d="m125.94,96.68l-1.79,3.08c-2.31-.6-4.56-1.39-6.68-2.53-.97-.52-1.88-1.11-2.68-1.87l3.52-1.65c.28.19.57.37.86.53,2.13,1.16,4.43,1.88,6.77,2.44Z"/>
  <path class="cls-4" d="m135.08,98.19l-.34,3.41h0c-2.48-.25-4.94-.6-7.39-1.1-1.07-.22-2.14-.46-3.19-.74l1.79-3.08c.55.13,1.1.25,1.65.37,2.48.52,4.98.89,7.49,1.14Z"/>
  <path class="cls-4" d="m145.27,98.61v3.43c-.4,0-.8.01-1.21.01-3.12-.02-6.23-.15-9.32-.45l.34-3.41c3.38.34,6.78.46,10.19.42Z"/>
  <path class="cls-4" d="m156.96,101.18c-3.87.56-7.78.8-11.7.86v-3.43c.25,0,.5,0,.76,0,3.46-.06,6.9-.3,10.31-.79l.63,3.37Z"/>
  <path class="cls-4" d="m125.78,114.52c-1.9.52-3.82,1-5.68,1.66-.5.18-.98.39-1.46.63l-2.67-2.54c.35-.19.71-.37,1.07-.54,2.57-1.21,5.27-1.97,8.04-2.56,1.01-.21,1.9.36,2.09,1.31.19.95-.4,1.77-1.39,2.05Z"/>
  <path class="cls-4" d="m115.34,121.33c.48.46,1,.89,1.56,1.26l-3.52,1.65c-.23-.2-.45-.43-.65-.67-1.86-2.15-1.84-4.75.05-6.87.92-1.03,2.02-1.8,3.21-2.44l2.67,2.54c-.74.37-1.45.79-2.17,1.18-.42.23-.79.6-1.13.97-.77.82-.82,1.6,0,2.38Z"/>
  <path class="cls-4" d="m124.53,125.56l-1.79,3.08c-2.31-.6-4.56-1.39-6.68-2.53-.97-.52-1.88-1.11-2.68-1.87l3.52-1.65c.28.19.57.37.86.53,2.13,1.16,4.43,1.88,6.77,2.44Z"/>
  <path class="cls-4" d="m133.67,127.07l-.34,3.41h0c-2.48-.25-4.94-.6-7.39-1.1-1.07-.22-2.14-.46-3.19-.74l1.79-3.08c.55.13,1.1.25,1.65.37,2.48.52,4.98.89,7.49,1.14Z"/>
  <path class="cls-4" d="m143.85,127.49v3.43c-.4,0-.8.01-1.21.01-3.12-.02-6.23-.15-9.32-.45l.34-3.41c3.38.34,6.78.46,10.19.42Z"/>
  <path class="cls-4" d="m155.55,130.06c-3.87.56-7.78.8-11.7.86v-3.43c.25,0,.5,0,.76,0,3.46-.06,6.9-.3,10.31-.79l.63,3.37Z"/>
  <path class="cls-4" d="m165.23,127.88c-2.02.68-4.11,1.17-6.22,1.59-1.15.23-2.31.42-3.46.59l-.63-3.37c1.3-.18,2.59-.41,3.88-.67,1.44-.29,2.88-.62,4.28-1.04l2.15,2.9Z"/>
  <path class="cls-4" d="m174.11,120.31c-.03,1-.39,2-1.08,2.89-1.15,1.48-2.68,2.45-4.33,3.26-1.13.55-2.29,1.02-3.47,1.41l-2.15-2.9c1.5-.45,2.97-1.01,4.39-1.74.87-.45,1.71-1.03,2.45-1.68.48-.42.73-.83.77-1.25h3.42Z"/>
  <path class="cls-4" d="m126.91,145.94c-1.9.52-3.82,1-5.68,1.66-.5.18-.98.39-1.46.63l-2.67-2.54c.35-.19.71-.37,1.07-.54,2.57-1.21,5.27-1.97,8.04-2.56,1.01-.21,1.9.36,2.09,1.31.19.95-.4,1.77-1.39,2.05Z"/>
  <path class="cls-4" d="m116.47,152.75c.48.46,1,.89,1.56,1.26l-3.52,1.65c-.23-.2-.45-.43-.65-.67-1.86-2.15-1.84-4.75.05-6.87.92-1.03,2.02-1.8,3.21-2.44l2.67,2.54c-.74.37-1.45.79-2.17,1.18-.42.23-.79.6-1.13.97-.77.82-.82,1.6,0,2.38Z"/>
  <path class="cls-4" d="m125.66,156.97l-1.79,3.08c-2.31-.6-4.56-1.39-6.68-2.53-.97-.52-1.88-1.11-2.68-1.87l3.52-1.65c.28.19.57.37.86.53,2.13,1.16,4.43,1.88,6.77,2.44Z"/>
  <path class="cls-4" d="m134.8,158.48l-.34,3.41h0c-2.48-.25-4.94-.6-7.39-1.1-1.07-.22-2.14-.46-3.19-.74l1.79-3.08c.55.13,1.1.25,1.65.37,2.48.52,4.98.89,7.49,1.14Z"/>
  <path class="cls-4" d="m144.98,158.9v3.43c-.4,0-.8.01-1.21.01-3.12-.02-6.23-.15-9.32-.45l.34-3.41c3.38.34,6.78.46,10.19.42Z"/>
  <path class="cls-4" d="m156.68,161.47c-3.87.56-7.78.8-11.7.86v-3.43c.25,0,.5,0,.76,0,3.46-.06,6.9-.3,10.31-.79l.63,3.37Z"/>
  <path class="cls-4" d="m166.36,159.29c-2.02.68-4.11,1.17-6.22,1.59-1.15.23-2.31.42-3.46.59l-.63-3.37c1.3-.18,2.59-.41,3.88-.67,1.44-.29,2.88-.62,4.28-1.04l2.15,2.9Z"/>
  <path class="cls-4" d="m175.24,151.73c-.03,1-.39,2-1.08,2.89-1.15,1.48-2.68,2.45-4.33,3.26-1.13.55-2.29,1.02-3.47,1.41l-2.15-2.9c1.5-.45,2.97-1.01,4.39-1.74.87-.45,1.71-1.03,2.45-1.68.48-.42.73-.83.77-1.25h3.42Z"/>
  <path class="cls-4" d="m171.82,151.73c.05-.5-.21-1.02-.77-1.57-.99-.98-2.22-1.6-3.48-2.15-.37-.16-.74-.31-1.11-.45l3.08-2.42c1.11.55,2.19,1.2,3.21,1.98.55.42,1.04.96,1.47,1.52.73.95,1.07,2.02,1.03,3.09h-3.42Z"/>
  <path class="cls-4" d="m169.53,145.13l-3.08,2.42c-1.81-.7-3.68-1.19-5.57-1.61-.65-.14-1.14-.46-1.39-1.1-.45-1.16.5-2.54,1.71-2.29,2.88.58,5.72,1.29,8.33,2.58Z"/>
</svg>