<?xml version="1.0" encoding="UTF-8"?>
<svg id="Capa_1" data-name="Capa 1" xmlns="http://www.w3.org/2000/svg" viewBox="0 0 428.9 180.36">
  <defs>
    <style>
      .cls-1 {
        letter-spacing: -.03em;
      }

      .cls-2 {
        stroke-width: .31px;
      }

      .cls-2, .cls-3, .cls-4, .cls-5, .cls-6, .cls-7, .cls-8, .cls-9, .cls-10 {
        stroke: #72b0c3;
        stroke-miterlimit: 10;
      }

      .cls-2, .cls-4, .cls-5, .cls-6, .cls-7, .cls-9, .cls-10 {
        fill: #72b0c3;
      }

      .cls-11 {
        letter-spacing: -.01em;
      }

      .cls-3 {
        stroke-width: .31px;
      }

      .cls-3, .cls-8 {
        fill: none;
      }

      .cls-4, .cls-8 {
        stroke-width: .4px;
      }

      .cls-12 {
        letter-spacing: 0em;
      }

      .cls-13 {
        fill: #1d1d1b;
        font-family: Montserrat-Regular, Montserrat;
        font-size: 11.35px;
      }

      .cls-5 {
        stroke-width: .35px;
      }

      .cls-6 {
        stroke-width: .17px;
      }

      .cls-7 {
        stroke-width: .1px;
      }

      .cls-9 {
        stroke-width: .21px;
      }

      .cls-14 {
        letter-spacing: 0em;
      }

      .cls-15 {
        letter-spacing: -.03em;
      }

      .cls-16 {
        letter-spacing: -.02em;
      }

      .cls-10 {
        stroke-width: .26px;
      }
    </style>
  </defs>
  <line class="cls-8" x1="130.85" y1="113.99" x2="130.71" y2="113.95"/>
  <path class="cls-4" d="m89.92,77.99c-.19-.7-.42-1.4-.66-2.11-1.77-4.98-4.01-9.74-6.57-14.37-6.54-11.85-14.25-22.98-22.41-33.84-.6-.79-1.21-1.56-1.89-2.44-.35.43-.59.7-.8,1-6.6,8.62-12.83,17.48-18.52,26.7-3.98,6.45-7.59,13.08-10.53,20.05-3.36,7.95-3.67,15.9-.09,23.78,5.24,11.56,14.38,18.49,27.49,19.44,13.6.99,23.98-4.79,30.72-16.15,4.12-6.94,5.4-14.35,3.27-22.06Zm-8.7,9.29c-1.15,3.17-2.78,6.11-4.84,8.81-3.1,4.07-6.97,7.3-11.58,9.69-.57.3-1.27.56-1.9.55-.99-.03-1.67-.64-1.91-1.62-.25-1,.24-1.8,1.25-2.45,2.08-1.33,4.26-2.57,6.17-4.11,3.98-3.21,6.74-7.32,8.54-12,.4-1.05.97-1.88,2.08-1.92,1.81-.03,2.79,1.42,2.2,3.04Z"/>
  <line class="cls-3" x1="207.81" y1="113.99" x2="207.7" y2="113.96"/>
  <path class="cls-5" d="m160.14,82.87c-.17-.61-.36-1.22-.58-1.84-1.54-4.34-3.5-8.5-5.73-12.54-5.71-10.35-12.44-20.05-19.55-29.53-.52-.69-1.06-1.36-1.65-2.13-.31.37-.51.61-.7.87-5.76,7.52-11.2,15.26-16.16,23.3-3.48,5.63-6.62,11.41-9.19,17.5-2.93,6.94-3.2,13.88-.08,20.76,4.57,10.09,12.55,16.14,23.99,16.96,11.87.86,20.93-4.18,26.81-14.09,3.59-6.06,4.72-12.52,2.86-19.25Zm-7.59,8.11c-1.01,2.77-2.43,5.33-4.23,7.69-2.71,3.55-6.09,6.37-10.11,8.46-.5.26-1.11.49-1.66.48-.87-.02-1.46-.56-1.67-1.41-.21-.88.21-1.57,1.09-2.14,1.82-1.16,3.72-2.24,5.38-3.59,3.48-2.81,5.88-6.38,7.46-10.47.35-.92.84-1.64,1.82-1.67,1.58-.02,2.44,1.24,1.92,2.65Z"/>
  <path class="cls-10" d="m278.41,91.39c-.12-.46-.27-.91-.43-1.37-1.15-3.24-2.61-6.33-4.27-9.34-4.25-7.71-9.27-14.94-14.57-22-.39-.51-.79-1.02-1.23-1.59-.23.28-.38.46-.52.65-4.29,5.61-8.34,11.37-12.04,17.36-2.59,4.19-4.93,8.5-6.85,13.03-2.18,5.17-2.39,10.34-.06,15.46,3.41,7.52,9.35,12.02,17.87,12.64,8.84.64,15.59-3.11,19.97-10.5,2.68-4.51,3.51-9.33,2.13-14.34Zm-5.65,6.04c-.75,2.06-1.81,3.97-3.15,5.73-2.02,2.65-4.53,4.74-7.53,6.3-.37.2-.82.36-1.24.36-.65-.02-1.09-.42-1.24-1.05-.16-.65.15-1.17.81-1.59,1.35-.87,2.77-1.67,4.01-2.67,2.59-2.09,4.38-4.76,5.56-7.8.26-.68.63-1.22,1.35-1.25,1.18-.02,1.81.93,1.43,1.98Z"/>
  <path class="cls-2" d="m224.75,86.15c-.15-.55-.33-1.1-.52-1.66-1.39-3.92-3.16-7.66-5.17-11.31-5.15-9.33-11.22-18.09-17.64-26.63-.47-.62-.95-1.23-1.49-1.92-.28.34-.46.55-.63.78-5.2,6.79-10.1,13.76-14.57,21.01-3.14,5.07-5.97,10.29-8.29,15.78-2.64,6.26-2.89,12.51-.07,18.72,4.13,9.1,11.32,14.56,21.63,15.3,10.7.78,18.87-3.77,24.17-12.71,3.24-5.46,4.25-11.29,2.58-17.36Zm-6.84,7.31c-.91,2.49-2.19,4.81-3.81,6.94-2.44,3.21-5.49,5.74-9.12,7.63-.45.24-1,.44-1.5.43-.78-.02-1.32-.5-1.5-1.27-.19-.79.19-1.42.98-1.93,1.64-1.05,3.35-2.02,4.86-3.23,3.14-2.53,5.3-5.76,6.72-9.45.31-.83.76-1.48,1.64-1.51,1.42-.02,2.2,1.12,1.73,2.39Z"/>
  <path class="cls-9" d="m323.77,96.28c-.1-.37-.22-.73-.35-1.1-.92-2.6-2.1-5.09-3.43-7.51-3.42-6.19-7.45-12.01-11.71-17.68-.31-.41-.63-.82-.99-1.27-.18.22-.31.37-.42.52-3.45,4.51-6.71,9.14-9.68,13.95-2.08,3.37-3.97,6.83-5.5,10.48-1.76,4.16-1.92,8.31-.05,12.43,2.74,6.04,7.52,9.66,14.36,10.16,7.11.52,12.53-2.5,16.05-8.44,2.15-3.63,2.82-7.5,1.71-11.53Zm-4.54,4.85c-.6,1.66-1.45,3.19-2.53,4.61-1.62,2.13-3.64,3.81-6.05,5.06-.3.16-.66.29-.99.29-.52-.01-.88-.33-1-.84-.13-.53.12-.94.65-1.28,1.09-.7,2.23-1.34,3.22-2.15,2.08-1.68,3.52-3.82,4.47-6.27.21-.55.5-.98,1.09-1,.94-.01,1.46.74,1.15,1.59Z"/>
  <path class="cls-6" d="m363.73,100.19c-.08-.3-.18-.59-.28-.89-.74-2.09-1.69-4.1-2.76-6.04-2.75-4.99-5.99-9.67-9.43-14.23-.25-.33-.51-.66-.8-1.03-.15.18-.25.3-.34.42-2.78,3.63-5.4,7.35-7.79,11.23-1.68,2.71-3.19,5.5-4.43,8.43-1.41,3.35-1.54,6.69-.04,10,2.21,4.86,6.05,7.78,11.56,8.18,5.72.41,10.09-2.01,12.92-6.79,1.73-2.92,2.27-6.04,1.38-9.28Zm-3.66,3.91c-.49,1.33-1.17,2.57-2.04,3.71-1.31,1.71-2.93,3.07-4.87,4.08-.24.13-.53.23-.8.23-.42-.01-.7-.27-.8-.68-.1-.42.1-.76.53-1.03.88-.56,1.79-1.08,2.6-1.73,1.68-1.35,2.83-3.08,3.59-5.05.17-.44.41-.79.88-.81.76-.01,1.17.6.92,1.28Z"/>
  <path class="cls-7" d="m392.29,105.99c-.05-.17-.1-.34-.16-.52-.43-1.22-.98-2.39-1.61-3.52-1.6-2.91-3.49-5.63-5.49-8.29-.15-.19-.3-.38-.46-.6-.09.11-.14.17-.2.24-1.62,2.11-3.14,4.28-4.54,6.54-.98,1.58-1.86,3.21-2.58,4.91-.82,1.95-.9,3.9-.02,5.83,1.28,2.83,3.52,4.53,6.74,4.76,3.33.24,5.88-1.17,7.53-3.96,1.01-1.7,1.32-3.52.8-5.41Zm-2.13,2.28c-.28.78-.68,1.5-1.19,2.16-.76,1-1.71,1.79-2.84,2.37-.14.07-.31.14-.47.13-.24,0-.41-.16-.47-.4-.06-.25.06-.44.31-.6.51-.33,1.04-.63,1.51-1.01.98-.79,1.65-1.79,2.09-2.94.1-.26.24-.46.51-.47.44,0,.68.35.54.75Z"/>
  <line class="cls-8" x1="128.3" y1="114.81" x2="128.16" y2="114.76"/>
  <line class="cls-3" x1="205.26" y1="114.81" x2="205.15" y2="114.77"/>
  <text class="cls-13" transform="translate(47.55 138.4)"><tspan x="0" y="0">1-5</tspan></text>
  <text class="cls-13" transform="translate(118.68 138.65)"><tspan x="0" y="0">6</tspan><tspan class="cls-16" x="6.91" y="0">-</tspan><tspan x="11.31" y="0">10</tspan></text>
  <text class="cls-13" transform="translate(186.27 138.78)"><tspan x="0" y="0">11</tspan><tspan class="cls-11" x="8.2" y="0">-</tspan><tspan x="12.59" y="0">15</tspan></text>
  <text class="cls-13" transform="translate(244.29 139.05)"><tspan x="0" y="0">16</tspan><tspan class="cls-1" x="11.01" y="0">-</tspan><tspan class="cls-14" x="15.23" y="0">2</tspan><tspan x="21.66" y="0">0</tspan></text>
  <text class="cls-13" transform="translate(297.92 139.18)"><tspan x="0" y="0">21</tspan><tspan class="cls-1" x="10.54" y="0">-</tspan><tspan class="cls-12" x="14.77" y="0">25</tspan></text>
  <text class="cls-13" transform="translate(336.8 138.78)"><tspan x="0" y="0">21</tspan><tspan class="cls-1" x="10.54" y="0">-</tspan><tspan class="cls-12" x="14.77" y="0">25</tspan></text>
  <text class="cls-13" transform="translate(372.68 138.41)"><tspan class="cls-14" x="0" y="0">2</tspan><tspan x="6.42" y="0">6</tspan><tspan class="cls-15" x="13.34" y="0">-</tspan><tspan x="17.62" y="0">30</tspan></text>
</svg>