<?xml version="1.0" encoding="UTF-8"?>
<svg id="Capa_1" data-name="Capa 1" xmlns="http://www.w3.org/2000/svg" viewBox="0 0 233.8 180.36">
  <defs>
    <style>
      .cls-1 {
        letter-spacing: -.01em;
      }

      .cls-2 {
        fill: #1d1d1b;
        font-family: Montserrat-Regular, Montserrat;
        font-size: 11.35px;
      }

      .cls-3 {
        fill: none;
        stroke: #72b0c3;
        stroke-miterlimit: 10;
        stroke-width: .41px;
      }

      .cls-4 {
        letter-spacing: 0em;
      }

      .cls-5 {
        fill: #245194;
        stroke-width: 0px;
      }
    </style>
  </defs>
  <line class="cls-3" x1="87.75" y1="62.46" x2="87.66" y2="62.42"/>
  <text class="cls-2" transform="translate(35.31 30.95)"><tspan x="0" y="0">0 a 5000</tspan><tspan x="0" y="30.27">5000 a 10000</tspan><tspan x="0" y="60.54">1000 a 15000</tspan><tspan x="0" y="90.81">15000 a </tspan><tspan class="cls-4" x="45.71" y="90.81">2</tspan><tspan x="52.14" y="90.81">0000</tspan><tspan class="cls-4" x="0" y="121.08">2</tspan><tspan x="6.42" y="121.08">0000 a </tspan><tspan class="cls-1" x="49.13" y="121.08">+</tspan><tspan x="55.52" y="121.08">25000</tspan></text>
  <path class="cls-5" d="m150.11,27.65c-.57.33-1.16.64-1.71,1l-5.27-3.15c.41-.47.89-.9,1.41-1.28.92-.68,1.93-1.28,2.97-1.78,1.5-.74,3.15-.14,3.87,1.3.71,1.43.16,3.08-1.27,3.9Z"/>
  <path class="cls-5" d="m149.2,30.68l-5.76,3.02c-1.47-1.5-2.2-3.32-1.67-5.6.23-1,.71-1.86,1.35-2.59l5.27,3.15c-.11.07-.23.14-.34.22-.66.47-.68.75,0,1.15.38.22.76.44,1.15.66Z"/>
  <path class="cls-5" d="m149.46,54.8c-.57.33-1.16.64-1.71,1l-5.27-3.15c.41-.47.89-.9,1.41-1.28.92-.68,1.93-1.28,2.97-1.78,1.5-.74,3.15-.14,3.87,1.3.71,1.43.16,3.08-1.27,3.9Z"/>
  <path class="cls-5" d="m148.56,57.83l-5.76,3.02c-1.47-1.5-2.2-3.32-1.67-5.6.23-1,.71-1.86,1.35-2.59l5.27,3.15c-.11.07-.23.14-.34.22-.66.47-.68.75,0,1.15.38.22.76.44,1.15.66Z"/>
  <path class="cls-5" d="m153.17,59.71l-2.36,5.38c-2.58-.75-5.07-1.74-7.18-3.48-.29-.24-.57-.49-.82-.76l5.76-3.02c.8.44,1.63.85,2.49,1.17.7.27,1.4.5,2.12.71Z"/>
  <path class="cls-5" d="m160.41,61.17l-.72,5.79c-2.82-.38-5.62-.92-8.38-1.71-.16-.05-.34-.09-.5-.15l2.36-5.38c2.36.71,4.79,1.16,7.24,1.45Z"/>
  <path class="cls-5" d="m149.34,80.72c-.57.33-1.16.64-1.71,1l-5.27-3.15c.41-.47.89-.9,1.41-1.28.92-.68,1.93-1.28,2.97-1.78,1.5-.74,3.15-.14,3.87,1.3.71,1.43.16,3.08-1.27,3.9Z"/>
  <path class="cls-5" d="m148.44,83.75l-5.76,3.02c-1.47-1.5-2.2-3.32-1.67-5.6.23-1,.71-1.86,1.35-2.59l5.27,3.15c-.11.07-.23.14-.34.22-.66.47-.68.75,0,1.15.38.22.76.44,1.15.66Z"/>
  <path class="cls-5" d="m153.05,85.64l-2.36,5.38c-2.58-.75-5.07-1.74-7.18-3.48-.29-.24-.57-.49-.82-.76l5.76-3.02c.8.44,1.63.85,2.49,1.17.7.27,1.4.5,2.12.71Z"/>
  <path class="cls-5" d="m160.29,87.09l-.72,5.79c-2.82-.38-5.62-.92-8.38-1.71-.16-.05-.34-.09-.5-.15l2.36-5.38c2.36.71,4.79,1.16,7.24,1.45Z"/>
  <path class="cls-5" d="m167.67,87.63v5.95c-2.72-.12-5.42-.34-8.1-.71l.72-5.79c1.17.14,2.35.25,3.53.34,1.28.09,2.56.16,3.85.21Z"/>
  <path class="cls-5" d="m176.4,93.24c-2.07.16-4.15.29-6.22.44-.84-.03-1.68-.06-2.51-.1v-5.95c2.64.09,5.27.06,7.89-.11l.84,5.72Z"/>
  <path class="cls-5" d="m148.3,110.48c-.57.33-1.16.64-1.71,1l-5.27-3.15c.41-.47.89-.9,1.41-1.28.92-.68,1.93-1.28,2.97-1.78,1.5-.74,3.15-.14,3.87,1.3.71,1.43.16,3.08-1.27,3.9Z"/>
  <path class="cls-5" d="m147.4,113.51l-5.76,3.02c-1.47-1.5-2.2-3.32-1.67-5.6.23-1,.71-1.86,1.35-2.59l5.27,3.15c-.11.07-.23.14-.34.22-.66.47-.68.75,0,1.15.38.22.76.44,1.15.66Z"/>
  <path class="cls-5" d="m152.01,115.39l-2.36,5.38c-2.58-.75-5.07-1.74-7.18-3.48-.29-.24-.57-.49-.82-.76l5.76-3.02c.8.44,1.63.85,2.49,1.17.7.27,1.4.5,2.12.71Z"/>
  <path class="cls-5" d="m159.25,116.85l-.72,5.79c-2.82-.38-5.62-.92-8.38-1.71-.16-.05-.34-.09-.5-.15l2.36-5.38c2.36.71,4.79,1.16,7.24,1.45Z"/>
  <path class="cls-5" d="m166.63,117.39v5.95c-2.72-.12-5.42-.34-8.1-.71l.72-5.79c1.17.14,2.35.25,3.53.34,1.28.09,2.56.16,3.85.21Z"/>
  <path class="cls-5" d="m175.36,123c-2.07.16-4.15.29-6.22.44-.84-.03-1.68-.06-2.51-.1v-5.95c2.64.09,5.27.06,7.89-.11l.84,5.72Z"/>
  <path class="cls-5" d="m184.41,121.91c-1.49.29-3,.51-4.52.68-1.5.17-3.02.3-4.53.41l-.84-5.72c2.34-.15,4.68-.42,7.01-.8l2.87,5.43Z"/>
  <path class="cls-5" d="m193.3,119.04c-.11.06-.22.11-.34.16-2.74,1.29-5.62,2.14-8.55,2.71l-2.87-5.43c.63-.11,1.26-.22,1.89-.34,2-.4,3.97-.92,5.85-1.68l4.02,4.59Z"/>
  <path class="cls-5" d="m147.49,143.19c-.57.33-1.16.64-1.71,1l-5.27-3.15c.41-.47.89-.9,1.41-1.28.92-.68,1.93-1.28,2.97-1.78,1.5-.74,3.15-.14,3.87,1.3.71,1.43.16,3.08-1.27,3.9Z"/>
  <path class="cls-5" d="m146.59,146.22l-5.76,3.02c-1.47-1.5-2.2-3.32-1.67-5.6.23-1,.71-1.86,1.35-2.59l5.27,3.15c-.11.07-.23.14-.34.22-.66.47-.68.75,0,1.15.38.22.76.44,1.15.66Z"/>
  <path class="cls-5" d="m151.19,148.11l-2.36,5.38c-2.58-.75-5.07-1.74-7.18-3.48-.29-.24-.57-.49-.82-.76l5.76-3.02c.8.44,1.63.85,2.49,1.17.7.27,1.4.5,2.12.71Z"/>
  <path class="cls-5" d="m158.44,149.56l-.72,5.79c-2.82-.38-5.62-.92-8.38-1.71-.16-.05-.34-.09-.5-.15l2.36-5.38c2.36.71,4.79,1.16,7.24,1.45Z"/>
  <path class="cls-5" d="m165.81,150.11v5.95c-2.72-.12-5.42-.34-8.1-.71l.72-5.79c1.17.14,2.35.25,3.53.34,1.28.09,2.56.16,3.85.21Z"/>
  <path class="cls-5" d="m174.55,155.71c-2.07.16-4.15.29-6.22.44-.84-.03-1.68-.06-2.51-.1v-5.95c2.64.09,5.27.06,7.89-.11l.84,5.72Z"/>
  <path class="cls-5" d="m183.6,154.63c-1.49.29-3,.51-4.52.68-1.5.17-3.02.3-4.53.41l-.84-5.72c2.34-.15,4.68-.42,7.01-.8l2.87,5.43Z"/>
  <path class="cls-5" d="m192.49,151.75c-.11.06-.22.11-.34.16-2.74,1.29-5.62,2.14-8.55,2.71l-2.87-5.43c.63-.11,1.26-.22,1.89-.34,2-.4,3.97-.92,5.85-1.68l4.02,4.59Z"/>
  <path class="cls-5" d="m196.47,148.77c-1.08,1.33-2.47,2.24-3.98,2.99l-4.02-4.59c.59-.24,1.17-.51,1.74-.8.49-.26.95-.61,1.4-.94.39-.28.37-.61-.01-.87-.12-.08-.24-.16-.37-.24l5.77-2.33c1.34,2.18,1.17,4.69-.53,6.78Z"/>
  <path class="cls-5" d="m197,141.99l-5.77,2.33c-.52-.35-1.04-.69-1.58-.98-1.68-.9-2.31-2.58-1.5-4.12.8-1.5,2.51-1.95,4.2-1.08,1.56.8,3.03,1.73,4.16,3.13.19.24.36.48.5.72Z"/>
</svg>