<?xml version="1.0" encoding="UTF-8"?>
<svg id="Capa_1" data-name="Capa 1" xmlns="http://www.w3.org/2000/svg" viewBox="0 0 233.8 180.36">
  <defs>
    <style>
      .cls-1 {
        fill: #72b0c3;
      }

      .cls-1, .cls-2 {
        stroke: #72b0c3;
        stroke-miterlimit: 10;
        stroke-width: .41px;
      }

      .cls-3 {
        fill: #1d1d1b;
        font-family: Montserrat-Regular, Montserrat;
        font-size: 11.35px;
      }

      .cls-2 {
        fill: none;
      }
    </style>
  </defs>
  <path class="cls-1" d="m87,90.71c-.19-.72-.41-1.42-.65-2.15-1.74-5.07-3.95-9.93-6.46-14.65-6.43-12.09-14.02-23.43-22.05-34.5-.59-.8-1.19-1.59-1.86-2.49-.34.44-.58.72-.79,1.01-6.5,8.79-12.63,17.82-18.22,27.22-3.92,6.57-7.47,13.33-10.36,20.44-3.31,8.11-3.61,16.21-.09,24.25,5.16,11.79,14.15,18.85,27.05,19.81,13.38,1.01,23.59-4.88,30.22-16.46,4.05-7.08,5.32-14.63,3.22-22.49Zm-8.56,9.47c-1.14,3.23-2.74,6.23-4.77,8.99-3.05,4.15-6.86,7.44-11.4,9.88-.56.31-1.25.57-1.87.56-.98-.03-1.65-.65-1.88-1.65-.24-1.02.23-1.83,1.23-2.5,2.05-1.36,4.19-2.62,6.07-4.19,3.92-3.28,6.63-7.46,8.41-12.23.39-1.07.95-1.92,2.05-1.96,1.78-.03,2.75,1.45,2.16,3.1Z"/>
  <path class="cls-2" d="m76.29,97.08c1.78-.02,2.75,1.45,2.16,3.11-1.14,3.23-2.74,6.22-4.77,8.98-3.05,4.15-6.87,7.44-11.39,9.88-.56.31-1.25.57-1.87.55-.98-.02-1.65-.65-1.88-1.65-.24-1.03.23-1.84,1.23-2.49,2.05-1.36,4.19-2.62,6.07-4.2,3.92-3.28,6.63-7.46,8.4-12.23.4-1.07.95-1.92,2.05-1.95Z"/>
  <line class="cls-1" x1="87.08" y1="90.73" x2="87.01" y2="90.71"/>
  <path class="cls-1" d="m207.14,90.71c-.19-.72-.41-1.42-.65-2.15-1.74-5.07-3.95-9.93-6.46-14.65-6.43-12.09-14.02-23.43-22.05-34.5-.59-.8-1.19-1.59-1.86-2.49-.34.44-.58.72-.79,1.01-6.5,8.79-12.63,17.82-18.22,27.22-3.92,6.57-7.47,13.33-10.36,20.44-3.31,8.11-3.61,16.21-.09,24.25,5.16,11.79,14.15,18.85,27.05,19.81,13.38,1.01,23.59-4.88,30.22-16.46,4.05-7.08,5.32-14.63,3.22-22.49Z"/>
  <text class="cls-3" transform="translate(50.36 146.16)"><tspan x="0" y="0">si</tspan></text>
  <text class="cls-3" transform="translate(171.66 146.16)"><tspan x="0" y="0">no</tspan></text>
</svg>