<?xml version="1.0" encoding="UTF-8"?>
<svg id="Capa_1" data-name="Capa 1" xmlns="http://www.w3.org/2000/svg" viewBox="0 0 1233.43 536.96">
  <defs>
    <style>
      .cls-1, .cls-2, .cls-3, .cls-4, .cls-5, .cls-6, .cls-7, .cls-8 {
        stroke-miterlimit: 10;
      }

      .cls-1, .cls-2, .cls-3, .cls-4, .cls-5, .cls-6, .cls-8 {
        stroke: #72b0c3;
      }

      .cls-1, .cls-3 {
        stroke-width: .43px;
      }

      .cls-1, .cls-7 {
        fill: none;
      }

      .cls-9 {
        font-family: Montserrat-Regular, Montserrat;
        font-size: 14px;
      }

      .cls-2 {
        stroke-width: .1px;
      }

      .cls-2, .cls-3, .cls-4, .cls-5, .cls-6, .cls-8 {
        fill: #72b0c3;
      }

      .cls-4 {
        stroke-width: .27px;
      }

      .cls-5 {
        stroke-width: .18px;
      }

      .cls-10 {
        fill: #15375c;
      }

      .cls-10, .cls-11 {
        stroke-width: 0px;
      }

      .cls-11 {
        fill: #245194;
      }

      .cls-6 {
        stroke-width: .37px;
      }

      .cls-7 {
        stroke: #000;
        stroke-width: .5px;
      }

      .cls-8 {
        stroke-width: .33px;
      }
    </style>
  </defs>
  <line class="cls-1" x1="274.67" y1="206.73" x2="274.57" y2="206.7"/>
  <line class="cls-1" x1="510.25" y1="206.73" x2="510.15" y2="206.7"/>
  <line class="cls-1" x1="745.82" y1="206.73" x2="745.72" y2="206.7"/>
  <line class="cls-1" x1="981.39" y1="206.73" x2="981.29" y2="206.7"/>
  <line class="cls-1" x1="275.79" y1="468.19" x2="275.69" y2="468.15"/>
  <line class="cls-1" x1="511.37" y1="468.19" x2="511.27" y2="468.15"/>
  <line class="cls-1" x1="746.94" y1="468.19" x2="746.84" y2="468.15"/>
  <line class="cls-1" x1="982.51" y1="468.19" x2="982.41" y2="468.15"/>
  <path class="cls-3" d="m170.98,110c-.2-.76-.43-1.51-.69-2.27-1.84-5.36-4.17-10.49-6.83-15.48-6.8-12.78-14.82-24.76-23.31-36.47-.62-.85-1.26-1.68-1.97-2.63-.36.46-.61.76-.84,1.07-6.87,9.29-13.35,18.84-19.26,28.77-4.14,6.95-7.89,14.1-10.96,21.61-3.49,8.57-3.82,17.14-.1,25.63,5.45,12.46,14.96,19.93,28.59,20.95,14.14,1.06,24.94-5.16,31.95-17.4,4.28-7.48,5.62-15.46,3.41-23.77Zm-9.05,10.01c-1.2,3.42-2.89,6.58-5.04,9.5-3.23,4.39-7.25,7.86-12.05,10.44-.59.32-1.32.6-1.98.59-1.03-.03-1.74-.69-1.99-1.74-.26-1.08.25-1.94,1.3-2.64,2.17-1.44,4.43-2.77,6.42-4.43,4.14-3.46,7.01-7.88,8.89-12.93.41-1.13,1-2.03,2.17-2.07,1.88-.03,2.9,1.54,2.28,3.28Z"/>
  <path class="cls-1" d="m159.65,116.73c1.88-.03,2.9,1.54,2.29,3.28-1.2,3.41-2.9,6.58-5.04,9.49-3.23,4.39-7.26,7.86-12.05,10.45-.6.32-1.32.6-1.98.59-1.04-.02-1.75-.69-1.99-1.74-.25-1.09.25-1.94,1.3-2.64,2.17-1.43,4.43-2.77,6.42-4.44,4.14-3.46,7-7.88,8.88-12.93.42-1.13,1.01-2.03,2.17-2.07Z"/>
  <line class="cls-3" x1="171.06" y1="110.02" x2="170.98" y2="110"/>
  <path class="cls-11" d="m116.06,163.48c-.61.35-1.23.67-1.8,1.06l-5.57-3.32c.43-.5.94-.95,1.49-1.36.98-.72,2.04-1.35,3.14-1.89,1.58-.78,3.33-.14,4.09,1.38.75,1.51.17,3.26-1.34,4.13Z"/>
  <path class="cls-11" d="m115.1,166.69l-6.09,3.2c-1.55-1.59-2.33-3.51-1.76-5.92.24-1.06.75-1.97,1.43-2.74l5.57,3.32c-.12.08-.24.15-.36.23-.7.49-.72.8,0,1.21.4.23.8.47,1.21.7Z"/>
  <path class="cls-11" d="m119.97,168.68l-2.5,5.69c-2.73-.8-5.35-1.84-7.59-3.68-.31-.26-.6-.52-.87-.8l6.09-3.2c.85.47,1.72.9,2.63,1.24.74.28,1.48.53,2.24.75Z"/>
  <path class="cls-11" d="m127.63,170.22l-.76,6.12c-2.98-.4-5.94-.98-8.86-1.81-.17-.05-.36-.1-.53-.16l2.5-5.69c2.5.75,5.07,1.23,7.66,1.54Z"/>
  <path class="cls-11" d="m135.43,170.79v6.29c-2.87-.13-5.73-.36-8.57-.75l.76-6.12c1.24.15,2.48.27,3.73.36,1.36.1,2.71.17,4.07.22Z"/>
  <path class="cls-11" d="m144.66,176.72c-2.19.17-4.39.3-6.57.47-.89-.03-1.77-.06-2.66-.11v-6.29c2.79.1,5.57.07,8.35-.11l.89,6.04Z"/>
  <path class="cls-11" d="m154.23,175.57c-1.58.31-3.17.54-4.78.72-1.59.18-3.19.32-4.79.43l-.89-6.04c2.48-.16,4.95-.44,7.41-.85l3.04,5.74Z"/>
  <path class="cls-11" d="m163.63,172.53c-.11.06-.23.12-.36.17-2.9,1.36-5.94,2.26-9.04,2.86l-3.04-5.74c.67-.11,1.33-.23,2-.36,2.11-.42,4.2-.97,6.19-1.78l4.25,4.85Z"/>
  <path class="cls-10" d="m100.96,158.26c-4.17,1.14-8.4,2.19-12.47,3.64-1.09.39-2.16.87-3.2,1.38l-5.86-5.59c.77-.42,1.55-.81,2.34-1.18,5.64-2.65,11.59-4.34,17.66-5.62,2.22-.47,4.17.78,4.6,2.87.42,2.1-.88,3.9-3.07,4.5Z"/>
  <path class="cls-10" d="m78.02,173.22c1.05,1.01,2.21,1.95,3.43,2.77l-7.75,3.63c-.5-.44-.98-.94-1.43-1.47-4.08-4.73-4.05-10.43.1-15.1,2.01-2.26,4.43-3.95,7.04-5.35l5.86,5.59c-1.62.81-3.19,1.73-4.77,2.59-.93.51-1.74,1.33-2.47,2.12-1.69,1.81-1.8,3.53,0,5.23Z"/>
  <path class="cls-10" d="m98.21,182.5l-3.94,6.78c-5.07-1.33-10.02-3.06-14.69-5.56-2.12-1.14-4.13-2.44-5.88-4.1l7.75-3.63c.62.42,1.25.8,1.89,1.15,4.68,2.55,9.73,4.14,14.87,5.35Z"/>
  <line class="cls-3" x1="404.98" y1="105.54" x2="404.9" y2="105.52"/>
  <path class="cls-11" d="m349.91,162.99c-.61.35-1.23.67-1.8,1.06l-5.57-3.32c.43-.5.94-.95,1.49-1.36.98-.72,2.04-1.35,3.14-1.89,1.58-.78,3.33-.14,4.09,1.38.75,1.51.17,3.26-1.34,4.13Z"/>
  <path class="cls-11" d="m348.96,166.2l-6.09,3.2c-1.55-1.59-2.33-3.51-1.76-5.92.24-1.06.75-1.97,1.43-2.74l5.57,3.32c-.12.08-.24.15-.36.23-.7.49-.72.8,0,1.21.4.23.8.47,1.21.7Z"/>
  <path class="cls-10" d="m334.81,157.77c-4.17,1.14-8.4,2.19-12.47,3.64-1.09.39-2.16.87-3.2,1.38l-5.86-5.59c.77-.42,1.55-.81,2.34-1.18,5.64-2.65,11.59-4.34,17.66-5.62,2.22-.47,4.17.78,4.6,2.87.42,2.1-.88,3.9-3.07,4.5Z"/>
  <path class="cls-10" d="m311.88,172.73c1.05,1.01,2.21,1.95,3.43,2.77l-7.75,3.63c-.5-.44-.98-.94-1.43-1.47-4.08-4.73-4.05-10.43.1-15.1,2.01-2.26,4.43-3.95,7.04-5.35l5.86,5.59c-1.62.81-3.19,1.73-4.77,2.59-.93.51-1.74,1.33-2.47,2.12-1.69,1.81-1.8,3.53,0,5.23Z"/>
  <path class="cls-6" d="m401.13,116.19c-.17-.65-.38-1.29-.61-1.95-1.63-4.59-3.7-8.98-6.06-13.25-6.03-10.94-13.15-21.2-20.67-31.22-.55-.72-1.12-1.44-1.75-2.25-.32.4-.54.65-.74.92-6.09,7.95-11.84,16.13-17.08,24.63-3.68,5.95-7,12.07-9.72,18.5-3.1,7.34-3.39,14.67-.09,21.94,4.84,10.67,13.27,17.06,25.36,17.93,12.54.91,22.12-4.42,28.34-14.9,3.8-6.4,4.98-13.24,3.02-20.35Zm-8.02,8.57c-1.07,2.92-2.57,5.64-4.47,8.13-2.86,3.76-6.43,6.73-10.69,8.94-.52.28-1.17.51-1.75.51-.92-.03-1.55-.59-1.76-1.49-.23-.93.22-1.66,1.15-2.26,1.92-1.23,3.93-2.37,5.69-3.79,3.68-2.97,6.22-6.75,7.88-11.07.37-.97.89-1.74,1.92-1.77,1.67-.03,2.58,1.31,2.03,2.81Z"/>
  <path class="cls-3" d="m643.27,112.11c-.2-.76-.43-1.51-.69-2.27-1.84-5.36-4.17-10.49-6.83-15.48-6.8-12.78-14.82-24.76-23.31-36.47-.62-.85-1.26-1.68-1.97-2.63-.36.46-.61.76-.84,1.07-6.87,9.29-13.35,18.84-19.26,28.77-4.14,6.95-7.89,14.1-10.96,21.61-3.49,8.57-3.82,17.14-.1,25.63,5.45,12.46,14.96,19.93,28.59,20.95,14.14,1.06,24.94-5.16,31.95-17.4,4.28-7.48,5.62-15.46,3.41-23.77Zm-9.05,10.01c-1.2,3.42-2.89,6.58-5.04,9.5-3.23,4.39-7.25,7.86-12.05,10.44-.59.32-1.32.6-1.98.59-1.03-.03-1.74-.69-1.99-1.74-.26-1.08.25-1.94,1.3-2.64,2.17-1.44,4.43-2.77,6.42-4.43,4.14-3.46,7.01-7.88,8.89-12.93.41-1.13,1-2.03,2.17-2.07,1.88-.03,2.9,1.54,2.28,3.28Z"/>
  <path class="cls-1" d="m631.94,118.84c1.88-.03,2.9,1.54,2.29,3.28-1.2,3.41-2.9,6.58-5.04,9.49-3.23,4.39-7.26,7.86-12.05,10.45-.6.32-1.32.6-1.98.59-1.04-.02-1.75-.69-1.99-1.74-.25-1.09.25-1.94,1.3-2.64,2.17-1.43,4.43-2.77,6.42-4.44,4.14-3.46,7-7.88,8.88-12.93.42-1.13,1.01-2.03,2.17-2.07Z"/>
  <line class="cls-3" x1="643.35" y1="112.13" x2="643.28" y2="112.11"/>
  <path class="cls-11" d="m588.35,165.6c-.61.35-1.23.67-1.8,1.06l-5.57-3.32c.43-.5.94-.95,1.49-1.36.98-.72,2.04-1.35,3.14-1.89,1.58-.78,3.33-.14,4.09,1.38.75,1.51.17,3.26-1.34,4.13Z"/>
  <path class="cls-11" d="m587.4,168.8l-6.09,3.2c-1.55-1.59-2.33-3.51-1.76-5.92.24-1.06.75-1.97,1.43-2.74l5.57,3.32c-.12.08-.24.15-.36.23-.7.49-.72.8,0,1.21.4.23.8.47,1.21.7Z"/>
  <path class="cls-10" d="m573.25,160.37c-4.17,1.14-8.4,2.19-12.47,3.64-1.09.39-2.16.87-3.2,1.38l-5.86-5.59c.77-.42,1.55-.81,2.34-1.18,5.64-2.65,11.59-4.34,17.66-5.62,2.22-.47,4.17.78,4.6,2.87.42,2.1-.88,3.9-3.07,4.5Z"/>
  <path class="cls-10" d="m550.32,175.33c1.05,1.01,2.21,1.95,3.43,2.77l-7.75,3.63c-.5-.44-.98-.94-1.43-1.47-4.08-4.73-4.05-10.43.1-15.1,2.01-2.26,4.43-3.95,7.04-5.35l5.86,5.59c-1.62.81-3.19,1.73-4.77,2.59-.93.51-1.74,1.33-2.47,2.12-1.69,1.81-1.8,3.53,0,5.23Z"/>
  <line class="cls-3" x1="882.49" y1="112.13" x2="882.42" y2="112.11"/>
  <path class="cls-11" d="m827.49,165.6c-.61.35-1.23.67-1.8,1.06l-5.57-3.32c.43-.5.94-.95,1.49-1.36.98-.72,2.04-1.35,3.14-1.89,1.58-.78,3.33-.14,4.09,1.38.75,1.51.17,3.26-1.34,4.13Z"/>
  <path class="cls-11" d="m826.53,168.8l-6.09,3.2c-1.55-1.59-2.33-3.51-1.76-5.92.24-1.06.75-1.97,1.43-2.74l5.57,3.32c-.12.08-.24.15-.36.23-.7.49-.72.8,0,1.21.4.23.8.47,1.21.7Z"/>
  <path class="cls-11" d="m831.4,170.79l-2.5,5.69c-2.73-.8-5.35-1.84-7.59-3.68-.31-.26-.6-.52-.87-.8l6.09-3.2c.85.47,1.72.9,2.63,1.24.74.28,1.48.53,2.24.75Z"/>
  <path class="cls-11" d="m839.06,172.33l-.76,6.12c-2.98-.4-5.94-.98-8.86-1.81-.17-.05-.36-.1-.53-.16l2.5-5.69c2.5.75,5.07,1.23,7.66,1.54Z"/>
  <path class="cls-11" d="m846.86,172.91v6.29c-2.87-.13-5.73-.36-8.57-.75l.76-6.12c1.24.15,2.48.27,3.73.36,1.36.1,2.71.17,4.07.22Z"/>
  <path class="cls-11" d="m856.09,178.84c-2.19.17-4.39.3-6.57.47-.89-.03-1.77-.06-2.66-.11v-6.29c2.79.1,5.57.07,8.35-.11l.89,6.04Z"/>
  <path class="cls-11" d="m865.66,177.68c-1.58.31-3.17.54-4.78.72-1.59.18-3.19.32-4.79.43l-.89-6.04c2.48-.16,4.95-.44,7.41-.85l3.04,5.74Z"/>
  <path class="cls-11" d="m875.06,174.65c-.11.06-.23.12-.36.17-2.9,1.36-5.94,2.26-9.04,2.86l-3.04-5.74c.67-.11,1.33-.23,2-.36,2.11-.42,4.2-.97,6.19-1.78l4.25,4.85Z"/>
  <path class="cls-10" d="m812.39,160.37c-4.17,1.14-8.4,2.19-12.47,3.64-1.09.39-2.16.87-3.2,1.38l-5.86-5.59c.77-.42,1.55-.81,2.34-1.18,5.64-2.65,11.59-4.34,17.66-5.62,2.22-.47,4.17.78,4.6,2.87.42,2.1-.88,3.9-3.07,4.5Z"/>
  <path class="cls-10" d="m789.46,175.33c1.05,1.01,2.21,1.95,3.43,2.77l-7.75,3.63c-.5-.44-.98-.94-1.43-1.47-4.08-4.73-4.05-10.43.1-15.1,2.01-2.26,4.43-3.95,7.04-5.35l5.86,5.59c-1.62.81-3.19,1.73-4.77,2.59-.93.51-1.74,1.33-2.47,2.12-1.69,1.81-1.8,3.53,0,5.23Z"/>
  <path class="cls-10" d="m809.65,184.61l-3.94,6.78c-5.07-1.33-10.02-3.06-14.69-5.56-2.12-1.14-4.13-2.44-5.88-4.1l7.75-3.63c.62.42,1.25.8,1.89,1.15,4.68,2.55,9.73,4.14,14.87,5.35Z"/>
  <path class="cls-10" d="m811.93,160.55c-4.11,1.13-8.28,2.16-12.29,3.58-1.07.38-2.13.86-3.16,1.36l-5.78-5.5c.76-.41,1.53-.8,2.31-1.16,5.56-2.61,11.42-4.28,17.4-5.54,2.18-.46,4.11.77,4.53,2.83.41,2.07-.86,3.84-3.02,4.43Z"/>
  <path class="cls-10" d="m789.33,175.3c1.04.99,2.17,1.92,3.38,2.73l-7.63,3.58c-.49-.44-.96-.93-1.41-1.45-4.02-4.66-3.99-10.28.1-14.88,1.98-2.23,4.37-3.89,6.94-5.28l5.78,5.5c-1.59.8-3.15,1.7-4.7,2.55-.92.5-1.71,1.31-2.44,2.09-1.66,1.78-1.77,3.48,0,5.16Z"/>
  <path class="cls-10" d="m809.22,184.44l-3.88,6.68c-4.99-1.31-9.87-3.01-14.47-5.48-2.09-1.12-4.07-2.4-5.8-4.04l7.63-3.58c.61.41,1.23.79,1.87,1.14,4.61,2.51,9.59,4.08,14.66,5.28Z"/>
  <path class="cls-10" d="m829.01,187.72l-.74,7.38h0c-5.37-.54-10.7-1.31-16.01-2.38-2.32-.47-4.63-.99-6.91-1.59l3.88-6.68c1.18.28,2.38.55,3.58.8,5.38,1.13,10.78,1.93,16.21,2.47Z"/>
  <path class="cls-10" d="m851.07,188.62v7.43c-.87.02-1.74.03-2.61.03-6.76-.05-13.49-.33-20.19-.98l.74-7.38c7.31.74,14.67.99,22.06.9Z"/>
  <path class="cls-10" d="m876.4,194.18c-8.39,1.21-16.84,1.74-25.33,1.86v-7.43c.55,0,1.09,0,1.64-.02,7.49-.13,14.94-.66,22.33-1.71l1.36,7.3Z"/>
  <path class="cls-10" d="m897.36,189.47c-4.39,1.48-8.9,2.54-13.46,3.44-2.49.49-4.99.92-7.5,1.27l-1.36-7.3c2.81-.4,5.61-.88,8.41-1.45,3.12-.63,6.23-1.34,9.26-2.25l4.66,6.28Z"/>
  <path class="cls-10" d="m916.59,173.09c-.06,2.17-.85,4.34-2.33,6.27-2.48,3.21-5.8,5.31-9.38,7.06-2.45,1.2-4.96,2.2-7.51,3.06l-4.66-6.28c3.26-.97,6.44-2.18,9.5-3.78,1.89-.98,3.7-2.23,5.3-3.63,1.04-.92,1.58-1.8,1.67-2.7h7.41Z"/>
  <path class="cls-10" d="m909.18,173.09c.12-1.09-.45-2.2-1.67-3.4-2.15-2.13-4.8-3.46-7.53-4.66-.79-.35-1.59-.67-2.4-.97l6.67-5.25c2.41,1.18,4.74,2.59,6.94,4.29,1.19.92,2.26,2.08,3.18,3.29,1.57,2.06,2.31,4.38,2.23,6.7h-7.41Z"/>
  <path class="cls-10" d="m904.24,158.8l-6.67,5.25c-3.92-1.51-7.98-2.57-12.07-3.48-1.41-.31-2.47-1-3-2.37-.98-2.51,1.07-5.5,3.7-4.97,6.24,1.25,12.38,2.8,18.04,5.58Z"/>
  <path class="cls-11" d="m827.49,165.6c-.61.35-1.23.67-1.8,1.06l-5.57-3.32c.43-.5.94-.95,1.49-1.36.98-.72,2.04-1.35,3.14-1.89,1.58-.78,3.33-.14,4.09,1.38.75,1.51.17,3.26-1.34,4.13Z"/>
  <path class="cls-11" d="m826.53,168.8l-6.09,3.2c-1.55-1.59-2.33-3.51-1.76-5.92.24-1.06.75-1.97,1.43-2.74l5.57,3.32c-.12.08-.24.15-.36.23-.7.49-.72.8,0,1.21.4.23.8.47,1.21.7Z"/>
  <path class="cls-11" d="m831.4,170.79l-2.5,5.69c-2.73-.8-5.35-1.84-7.59-3.68-.31-.26-.6-.52-.87-.8l6.09-3.2c.85.47,1.72.9,2.63,1.24.74.28,1.48.53,2.24.75Z"/>
  <path class="cls-11" d="m839.06,172.33l-.76,6.12c-2.98-.4-5.94-.98-8.86-1.81-.17-.05-.36-.1-.53-.16l2.5-5.69c2.5.75,5.07,1.23,7.66,1.54Z"/>
  <path class="cls-11" d="m846.86,172.91v6.29c-2.87-.13-5.73-.36-8.57-.75l.76-6.12c1.24.15,2.48.27,3.73.36,1.36.1,2.71.17,4.07.22Z"/>
  <path class="cls-11" d="m856.09,178.84c-2.19.17-4.39.3-6.57.47-.89-.03-1.77-.06-2.66-.11v-6.29c2.79.1,5.57.07,8.35-.11l.89,6.04Z"/>
  <path class="cls-11" d="m865.66,177.68c-1.58.31-3.17.54-4.78.72-1.59.18-3.19.32-4.79.43l-.89-6.04c2.48-.16,4.95-.44,7.41-.85l3.04,5.74Z"/>
  <path class="cls-11" d="m875.06,174.65c-.11.06-.23.12-.36.17-2.9,1.36-5.94,2.26-9.04,2.86l-3.04-5.74c.67-.11,1.33-.23,2-.36,2.11-.42,4.2-.97,6.19-1.78l4.25,4.85Z"/>
  <path class="cls-11" d="m879.27,171.49c-1.14,1.4-2.61,2.37-4.21,3.16l-4.25-4.85c.62-.26,1.23-.54,1.84-.85.52-.27,1-.64,1.48-.99.41-.3.39-.64-.02-.92-.13-.08-.26-.17-.39-.26l6.1-2.46c1.42,2.3,1.23,4.96-.56,7.16Z"/>
  <path class="cls-11" d="m879.83,164.32l-6.1,2.46c-.55-.37-1.1-.73-1.67-1.04-1.78-.95-2.45-2.73-1.59-4.35.84-1.59,2.65-2.06,4.44-1.14,1.65.85,3.2,1.83,4.39,3.31.2.25.38.51.53.76Z"/>
  <path class="cls-8" d="m875.85,121.53c-.16-.59-.35-1.16-.55-1.76-1.47-4.14-3.34-8.1-5.46-11.95-5.44-9.86-11.86-19.12-18.64-28.15-.5-.65-1.01-1.3-1.57-2.03-.29.36-.49.59-.67.83-5.5,7.17-10.68,14.54-15.41,22.21-3.31,5.36-6.31,10.88-8.76,16.68-2.79,6.62-3.05,13.23-.08,19.79,4.36,9.62,11.97,15.39,22.87,16.17,11.31.82,19.95-3.98,25.56-13.43,3.42-5.78,4.5-11.94,2.72-18.35Zm-7.24,7.73c-.96,2.64-2.31,5.08-4.03,7.33-2.58,3.39-5.8,6.07-9.64,8.06-.47.25-1.05.46-1.58.46-.83-.02-1.39-.53-1.59-1.34-.2-.84.2-1.5,1.04-2.04,1.73-1.11,3.54-2.14,5.13-3.42,3.31-2.67,5.61-6.09,7.11-9.98.33-.87.8-1.57,1.73-1.6,1.5-.02,2.32,1.19,1.83,2.53Z"/>
  <line class="cls-3" x1="1116.92" y1="111.19" x2="1116.85" y2="111.17"/>
  <path class="cls-11" d="m1061.92,164.66c-.61.35-1.23.67-1.8,1.06l-5.57-3.32c.43-.5.94-.95,1.49-1.36.98-.72,2.04-1.35,3.14-1.89,1.58-.78,3.33-.14,4.09,1.38.75,1.51.17,3.26-1.34,4.13Z"/>
  <path class="cls-11" d="m1060.97,167.86l-6.09,3.2c-1.55-1.59-2.33-3.51-1.76-5.92.24-1.06.75-1.97,1.43-2.74l5.57,3.32c-.12.08-.24.15-.36.23-.7.49-.72.8,0,1.21.4.23.8.47,1.21.7Z"/>
  <path class="cls-10" d="m1046.82,159.43c-4.17,1.14-8.4,2.19-12.47,3.64-1.09.39-2.16.87-3.2,1.38l-5.86-5.59c.77-.42,1.55-.81,2.34-1.18,5.64-2.65,11.59-4.34,17.66-5.62,2.22-.47,4.17.78,4.6,2.87.42,2.1-.88,3.9-3.07,4.5Z"/>
  <path class="cls-10" d="m1023.89,174.39c1.05,1.01,2.21,1.95,3.43,2.77l-7.75,3.63c-.5-.44-.98-.94-1.43-1.47-4.08-4.73-4.05-10.43.1-15.1,2.01-2.26,4.43-3.95,7.04-5.35l5.86,5.59c-1.62.81-3.19,1.73-4.77,2.59-.93.51-1.74,1.33-2.47,2.12-1.69,1.81-1.8,3.53,0,5.23Z"/>
  <path class="cls-10" d="m1044.08,183.67l-3.94,6.78c-5.07-1.33-10.02-3.06-14.69-5.56-2.12-1.14-4.13-2.44-5.88-4.1l7.75-3.63c.62.42,1.25.8,1.89,1.15,4.68,2.55,9.73,4.14,14.87,5.35Z"/>
  <path class="cls-10" d="m1046.36,159.61c-4.11,1.13-8.28,2.16-12.29,3.58-1.07.38-2.13.86-3.16,1.36l-5.78-5.5c.76-.41,1.53-.8,2.31-1.16,5.56-2.61,11.42-4.28,17.4-5.54,2.18-.46,4.11.77,4.53,2.83.41,2.07-.86,3.84-3.02,4.43Z"/>
  <path class="cls-10" d="m1023.76,174.36c1.04.99,2.17,1.92,3.38,2.73l-7.63,3.58c-.49-.44-.96-.93-1.41-1.45-4.02-4.66-3.99-10.28.1-14.88,1.98-2.23,4.37-3.89,6.94-5.28l5.78,5.5c-1.59.8-3.15,1.7-4.7,2.55-.92.5-1.71,1.31-2.44,2.09-1.66,1.78-1.77,3.48,0,5.16Z"/>
  <path class="cls-10" d="m1043.66,183.5l-3.88,6.68c-4.99-1.31-9.87-3.01-14.47-5.48-2.09-1.12-4.07-2.4-5.8-4.04l7.63-3.58c.61.41,1.23.79,1.87,1.14,4.61,2.51,9.59,4.08,14.66,5.28Z"/>
  <path class="cls-10" d="m1063.44,186.78l-.74,7.38h0c-5.37-.54-10.7-1.31-16.01-2.38-2.32-.47-4.63-.99-6.91-1.59l3.88-6.68c1.18.28,2.38.55,3.58.8,5.38,1.13,10.78,1.93,16.21,2.47Z"/>
  <path class="cls-10" d="m1085.51,187.68v7.43c-.87.02-1.74.03-2.61.03-6.76-.05-13.49-.33-20.19-.98l.74-7.38c7.31.74,14.67.99,22.06.9Z"/>
  <path class="cls-10" d="m1110.83,193.24c-8.39,1.21-16.84,1.74-25.33,1.86v-7.43c.55,0,1.09,0,1.64-.02,7.49-.13,14.94-.66,22.33-1.71l1.36,7.3Z"/>
  <path class="cls-10" d="m1131.8,188.53c-4.39,1.48-8.9,2.54-13.46,3.44-2.49.49-4.99.92-7.5,1.27l-1.36-7.3c2.81-.4,5.61-.88,8.41-1.45,3.12-.63,6.23-1.34,9.26-2.25l4.66,6.28Z"/>
  <path class="cls-10" d="m1151.02,172.15c-.06,2.17-.85,4.34-2.33,6.27-2.48,3.21-5.8,5.31-9.38,7.06-2.45,1.2-4.96,2.2-7.51,3.06l-4.66-6.28c3.26-.97,6.44-2.18,9.5-3.78,1.89-.98,3.7-2.23,5.3-3.63,1.04-.92,1.58-1.8,1.67-2.7h7.41Z"/>
  <path class="cls-10" d="m1143.61,172.15c.12-1.09-.45-2.2-1.67-3.4-2.15-2.13-4.8-3.46-7.53-4.66-.79-.35-1.59-.67-2.4-.97l6.67-5.25c2.41,1.18,4.74,2.59,6.94,4.29,1.19.92,2.26,2.08,3.18,3.29,1.57,2.06,2.31,4.38,2.23,6.7h-7.41Z"/>
  <path class="cls-10" d="m1138.67,157.86l-6.67,5.25c-3.92-1.51-7.98-2.57-12.07-3.48-1.41-.31-2.47-1-3-2.37-.98-2.51,1.07-5.5,3.7-4.97,6.24,1.25,12.38,2.8,18.04,5.58Z"/>
  <path class="cls-11" d="m1061.92,164.66c-.61.35-1.23.67-1.8,1.06l-5.57-3.32c.43-.5.94-.95,1.49-1.36.98-.72,2.04-1.35,3.14-1.89,1.58-.78,3.33-.14,4.09,1.38.75,1.51.17,3.26-1.34,4.13Z"/>
  <path class="cls-11" d="m1060.97,167.86l-6.09,3.2c-1.55-1.59-2.33-3.51-1.76-5.92.24-1.06.75-1.97,1.43-2.74l5.57,3.32c-.12.08-.24.15-.36.23-.7.49-.72.8,0,1.21.4.23.8.47,1.21.7Z"/>
  <path class="cls-8" d="m1110.28,120.59c-.16-.59-.35-1.16-.55-1.76-1.47-4.14-3.34-8.1-5.46-11.95-5.44-9.86-11.86-19.12-18.64-28.15-.5-.65-1.01-1.3-1.57-2.03-.29.36-.49.59-.67.83-5.5,7.17-10.68,14.54-15.41,22.21-3.31,5.36-6.31,10.88-8.76,16.68-2.79,6.62-3.05,13.23-.08,19.79,4.36,9.62,11.97,15.39,22.87,16.17,11.31.82,19.95-3.98,25.56-13.43,3.42-5.78,4.5-11.94,2.72-18.35Zm-7.24,7.73c-.96,2.64-2.31,5.08-4.03,7.33-2.58,3.39-5.8,6.07-9.64,8.06-.47.25-1.05.46-1.58.46-.83-.02-1.39-.53-1.59-1.34-.2-.84.2-1.5,1.04-2.04,1.73-1.11,3.54-2.14,5.13-3.42,3.31-2.67,5.61-6.09,7.11-9.98.33-.87.8-1.57,1.73-1.6,1.5-.02,2.32,1.19,1.83,2.53Z"/>
  <line class="cls-3" x1="174.68" y1="366.69" x2="174.6" y2="366.67"/>
  <path class="cls-11" d="m119.67,420.16c-.61.35-1.23.67-1.8,1.06l-5.57-3.32c.43-.5.94-.95,1.49-1.36.98-.72,2.04-1.35,3.14-1.89,1.58-.78,3.33-.14,4.09,1.38.75,1.51.17,3.26-1.34,4.13Z"/>
  <path class="cls-11" d="m118.72,423.36l-6.09,3.2c-1.55-1.59-2.33-3.51-1.76-5.92.24-1.06.75-1.97,1.43-2.74l5.57,3.32c-.12.08-.24.15-.36.23-.7.49-.72.8,0,1.21.4.23.8.47,1.21.7Z"/>
  <path class="cls-10" d="m104.57,414.93c-4.17,1.14-8.4,2.19-12.47,3.64-1.09.39-2.16.87-3.2,1.38l-5.86-5.59c.77-.42,1.55-.81,2.34-1.18,5.64-2.65,11.59-4.34,17.66-5.62,2.22-.47,4.17.78,4.6,2.87.42,2.1-.88,3.9-3.07,4.5Z"/>
  <path class="cls-10" d="m81.64,429.89c1.05,1.01,2.21,1.95,3.43,2.77l-7.75,3.63c-.5-.44-.98-.94-1.43-1.47-4.08-4.73-4.05-10.43.1-15.1,2.01-2.26,4.43-3.95,7.04-5.35l5.86,5.59c-1.62.81-3.19,1.73-4.77,2.59-.93.51-1.74,1.33-2.47,2.12-1.69,1.81-1.8,3.53,0,5.23Z"/>
  <path class="cls-10" d="m101.83,439.17l-3.94,6.78c-5.07-1.33-10.02-3.06-14.69-5.56-2.12-1.14-4.13-2.44-5.88-4.1l7.75-3.63c.62.42,1.25.8,1.89,1.15,4.68,2.55,9.73,4.14,14.87,5.35Z"/>
  <path class="cls-10" d="m104.11,415.11c-4.11,1.13-8.28,2.16-12.29,3.58-1.07.38-2.13.86-3.16,1.36l-5.78-5.5c.76-.41,1.53-.8,2.31-1.16,5.56-2.61,11.42-4.28,17.4-5.54,2.18-.46,4.11.77,4.53,2.83.41,2.07-.86,3.84-3.02,4.43Z"/>
  <path class="cls-10" d="m81.51,429.86c1.04.99,2.17,1.92,3.38,2.73l-7.63,3.58c-.49-.44-.96-.93-1.41-1.45-4.02-4.66-3.99-10.28.1-14.88,1.98-2.23,4.37-3.89,6.94-5.28l5.78,5.5c-1.59.8-3.15,1.7-4.7,2.55-.92.5-1.71,1.31-2.44,2.09-1.66,1.78-1.77,3.48,0,5.16Z"/>
  <path class="cls-10" d="m101.41,439l-3.88,6.68c-4.99-1.31-9.87-3.01-14.47-5.48-2.09-1.12-4.07-2.4-5.8-4.04l7.63-3.58c.61.41,1.23.79,1.87,1.14,4.61,2.51,9.59,4.08,14.66,5.28Z"/>
  <path class="cls-10" d="m121.2,442.28l-.74,7.38h0c-5.37-.54-10.7-1.31-16.01-2.38-2.32-.47-4.63-.99-6.91-1.59l3.88-6.68c1.18.28,2.38.55,3.58.8,5.38,1.13,10.78,1.93,16.21,2.47Z"/>
  <path class="cls-10" d="m143.26,443.18v7.43c-.87.02-1.74.03-2.61.03-6.76-.05-13.49-.33-20.19-.98l.74-7.38c7.31.74,14.67.99,22.06.9Z"/>
  <path class="cls-10" d="m168.59,448.74c-8.39,1.21-16.84,1.74-25.33,1.86v-7.43c.55,0,1.09,0,1.64-.02,7.49-.13,14.94-.66,22.33-1.71l1.36,7.3Z"/>
  <path class="cls-10" d="m189.55,444.03c-4.39,1.48-8.9,2.54-13.46,3.44-2.49.49-4.99.92-7.5,1.27l-1.36-7.3c2.81-.4,5.61-.88,8.41-1.45,3.12-.63,6.23-1.34,9.26-2.25l4.66,6.28Z"/>
  <path class="cls-10" d="m208.77,427.65c-.06,2.17-.85,4.34-2.33,6.27-2.48,3.21-5.8,5.31-9.38,7.06-2.45,1.2-4.96,2.2-7.51,3.06l-4.66-6.28c3.26-.97,6.44-2.18,9.5-3.78,1.89-.98,3.7-2.23,5.3-3.63,1.04-.92,1.58-1.8,1.67-2.7h7.41Z"/>
  <path class="cls-10" d="m201.37,427.65c.12-1.09-.45-2.2-1.67-3.4-2.15-2.13-4.8-3.46-7.53-4.66-.79-.35-1.59-.67-2.4-.97l6.67-5.25c2.41,1.18,4.74,2.59,6.94,4.29,1.19.92,2.26,2.08,3.18,3.29,1.57,2.06,2.31,4.38,2.23,6.7h-7.41Z"/>
  <path class="cls-10" d="m196.43,413.36l-6.67,5.25c-3.92-1.51-7.98-2.57-12.07-3.48-1.41-.31-2.47-1-3-2.37-.98-2.51,1.07-5.5,3.7-4.97,6.24,1.25,12.38,2.8,18.04,5.58Z"/>
  <path class="cls-11" d="m119.67,420.16c-.61.35-1.23.67-1.8,1.06l-5.57-3.32c.43-.5.94-.95,1.49-1.36.98-.72,2.04-1.35,3.14-1.89,1.58-.78,3.33-.14,4.09,1.38.75,1.51.17,3.26-1.34,4.13Z"/>
  <path class="cls-11" d="m118.72,423.36l-6.09,3.2c-1.55-1.59-2.33-3.51-1.76-5.92.24-1.06.75-1.97,1.43-2.74l5.57,3.32c-.12.08-.24.15-.36.23-.7.49-.72.8,0,1.21.4.23.8.47,1.21.7Z"/>
  <path class="cls-4" d="m163.48,381.63c-.13-.48-.29-.96-.46-1.45-1.22-3.42-2.76-6.69-4.51-9.87-4.49-8.15-9.79-15.79-15.4-23.26-.41-.54-.83-1.07-1.3-1.68-.24.3-.4.48-.55.68-4.54,5.93-8.82,12.02-12.73,18.35-2.74,4.43-5.22,8.99-7.24,13.78-2.31,5.47-2.52,10.93-.07,16.35,3.6,7.95,9.89,12.71,18.89,13.36,9.35.68,16.48-3.29,21.11-11.1,2.83-4.77,3.71-9.86,2.25-15.16Zm-5.98,6.38c-.79,2.18-1.91,4.2-3.33,6.06-2.13,2.8-4.79,5.02-7.96,6.66-.39.21-.87.38-1.31.38-.68-.02-1.15-.44-1.31-1.11-.17-.69.16-1.24.86-1.68,1.43-.92,2.93-1.76,4.24-2.82,2.74-2.21,4.63-5.03,5.87-8.25.27-.72.66-1.29,1.43-1.32,1.24-.02,1.92.98,1.51,2.09Z"/>
  <line class="cls-3" x1="408.24" y1="361.2" x2="408.16" y2="361.18"/>
  <path class="cls-11" d="m353.23,414.66c-.61.35-1.23.67-1.8,1.06l-5.57-3.32c.43-.5.94-.95,1.49-1.36.98-.72,2.04-1.35,3.14-1.89,1.58-.78,3.33-.14,4.09,1.38.75,1.51.17,3.26-1.34,4.13Z"/>
  <path class="cls-11" d="m352.28,417.87l-6.09,3.2c-1.55-1.59-2.33-3.51-1.76-5.92.24-1.06.75-1.97,1.43-2.74l5.57,3.32c-.12.08-.24.15-.36.23-.7.49-.72.8,0,1.21.4.23.8.47,1.21.7Z"/>
  <path class="cls-10" d="m338.13,409.44c-4.17,1.14-8.4,2.19-12.47,3.64-1.09.39-2.16.87-3.2,1.38l-5.86-5.59c.77-.42,1.55-.81,2.34-1.18,5.64-2.65,11.59-4.34,17.66-5.62,2.22-.47,4.17.78,4.6,2.87.42,2.1-.88,3.9-3.07,4.5Z"/>
  <path class="cls-10" d="m315.2,424.4c1.05,1.01,2.21,1.95,3.43,2.77l-7.75,3.63c-.5-.44-.98-.94-1.43-1.47-4.08-4.73-4.05-10.43.1-15.1,2.01-2.26,4.43-3.95,7.04-5.35l5.86,5.59c-1.62.81-3.19,1.73-4.77,2.59-.93.51-1.74,1.33-2.47,2.12-1.69,1.81-1.8,3.53,0,5.23Z"/>
  <path class="cls-10" d="m337.67,409.62c-4.11,1.13-8.28,2.16-12.29,3.58-1.07.38-2.13.86-3.16,1.36l-5.78-5.5c.76-.41,1.53-.8,2.31-1.16,5.56-2.61,11.42-4.28,17.4-5.54,2.18-.46,4.11.77,4.53,2.83.41,2.07-.86,3.84-3.02,4.43Z"/>
  <path class="cls-10" d="m315.07,424.36c1.04.99,2.17,1.92,3.38,2.73l-7.63,3.58c-.49-.44-.96-.93-1.41-1.45-4.02-4.66-3.99-10.28.1-14.88,1.98-2.23,4.37-3.89,6.94-5.28l5.78,5.5c-1.59.8-3.15,1.7-4.7,2.55-.92.5-1.71,1.31-2.44,2.09-1.66,1.78-1.77,3.48,0,5.16Z"/>
  <path class="cls-11" d="m353.23,414.66c-.61.35-1.23.67-1.8,1.06l-5.57-3.32c.43-.5.94-.95,1.49-1.36.98-.72,2.04-1.35,3.14-1.89,1.58-.78,3.33-.14,4.09,1.38.75,1.51.17,3.26-1.34,4.13Z"/>
  <path class="cls-11" d="m352.28,417.87l-6.09,3.2c-1.55-1.59-2.33-3.51-1.76-5.92.24-1.06.75-1.97,1.43-2.74l5.57,3.32c-.12.08-.24.15-.36.23-.7.49-.72.8,0,1.21.4.23.8.47,1.21.7Z"/>
  <path class="cls-5" d="m388.9,395.25c-3,5.05-7.62,7.61-13.66,7.18-5.83-.42-9.9-3.5-12.23-8.65-1.59-3.5-1.45-7.03.05-10.57,1.3-3.1,2.91-6.05,4.68-8.92,2.53-4.1,5.3-8.03,8.23-11.87.1-.13.21-.25.36-.44.3.39.58.73.84,1.08,3.63,4.83,7.06,9.78,9.97,15.05,1.13,2.06,2.13,4.18,2.92,6.39.11.32.21.62.29.94.95,3.43.38,6.72-1.45,9.81Z"/>
  <line class="cls-3" x1="645.82" y1="361.2" x2="645.74" y2="361.18"/>
  <path class="cls-11" d="m590.81,414.66c-.61.35-1.23.67-1.8,1.06l-5.57-3.32c.43-.5.94-.95,1.49-1.36.98-.72,2.04-1.35,3.14-1.89,1.58-.78,3.33-.14,4.09,1.38.75,1.51.17,3.26-1.34,4.13Z"/>
  <path class="cls-11" d="m589.86,417.87l-6.09,3.2c-1.55-1.59-2.33-3.51-1.76-5.92.24-1.06.75-1.97,1.43-2.74l5.57,3.32c-.12.08-.24.15-.36.23-.7.49-.72.8,0,1.21.4.23.8.47,1.21.7Z"/>
  <path class="cls-10" d="m575.71,409.44c-4.17,1.14-8.4,2.19-12.47,3.64-1.09.39-2.16.87-3.2,1.38l-5.86-5.59c.77-.42,1.55-.81,2.34-1.18,5.64-2.65,11.59-4.34,17.66-5.62,2.22-.47,4.17.78,4.6,2.87.42,2.1-.88,3.9-3.07,4.5Z"/>
  <path class="cls-10" d="m552.78,424.4c1.05,1.01,2.21,1.95,3.43,2.77l-7.75,3.63c-.5-.44-.98-.94-1.43-1.47-4.08-4.73-4.05-10.43.1-15.1,2.01-2.26,4.43-3.95,7.04-5.35l5.86,5.59c-1.62.81-3.19,1.73-4.77,2.59-.93.51-1.74,1.33-2.47,2.12-1.69,1.81-1.8,3.53,0,5.23Z"/>
  <path class="cls-10" d="m575.25,409.62c-4.11,1.13-8.28,2.16-12.29,3.58-1.07.38-2.13.86-3.16,1.36l-5.78-5.5c.76-.41,1.53-.8,2.31-1.16,5.56-2.61,11.42-4.28,17.4-5.54,2.18-.46,4.11.77,4.53,2.83.41,2.07-.86,3.84-3.02,4.43Z"/>
  <path class="cls-10" d="m552.65,424.36c1.04.99,2.17,1.92,3.38,2.73l-7.63,3.58c-.49-.44-.96-.93-1.41-1.45-4.02-4.66-3.99-10.28.1-14.88,1.98-2.23,4.37-3.89,6.94-5.28l5.78,5.5c-1.59.8-3.15,1.7-4.7,2.55-.92.5-1.71,1.31-2.44,2.09-1.66,1.78-1.77,3.48,0,5.16Z"/>
  <path class="cls-11" d="m590.81,414.66c-.61.35-1.23.67-1.8,1.06l-5.57-3.32c.43-.5.94-.95,1.49-1.36.98-.72,2.04-1.35,3.14-1.89,1.58-.78,3.33-.14,4.09,1.38.75,1.51.17,3.26-1.34,4.13Z"/>
  <path class="cls-11" d="m589.86,417.87l-6.09,3.2c-1.55-1.59-2.33-3.51-1.76-5.92.24-1.06.75-1.97,1.43-2.74l5.57,3.32c-.12.08-.24.15-.36.23-.7.49-.72.8,0,1.21.4.23.8.47,1.21.7Z"/>
  <path class="cls-2" d="m621.12,392.66c-.05-.18-.11-.36-.17-.55-.46-1.29-1.04-2.52-1.7-3.72-1.69-3.07-3.69-5.95-5.81-8.77-.15-.2-.31-.4-.49-.63-.09.11-.15.18-.21.26-1.71,2.23-3.32,4.53-4.8,6.92-1.03,1.67-1.97,3.39-2.73,5.19-.87,2.06-.95,4.12-.02,6.16,1.36,3,3.73,4.79,7.12,5.04,3.52.26,6.21-1.24,7.96-4.18,1.07-1.8,1.4-3.72.85-5.71Zm-2.25,2.41c-.3.82-.72,1.58-1.26,2.28-.8,1.06-1.81,1.89-3,2.51-.15.08-.33.14-.49.14-.26,0-.43-.17-.5-.42-.06-.26.06-.47.32-.63.54-.35,1.1-.66,1.6-1.06,1.03-.83,1.75-1.9,2.21-3.11.1-.27.25-.49.54-.5.47,0,.72.37.57.79Z"/>
  <line class="cls-3" x1="1116.92" y1="362.35" x2="1116.85" y2="362.33"/>
  <path class="cls-11" d="m1061.92,415.82c-.61.35-1.23.67-1.8,1.06l-5.57-3.32c.43-.5.94-.95,1.49-1.36.98-.72,2.04-1.35,3.14-1.89,1.58-.78,3.33-.14,4.09,1.38.75,1.51.17,3.26-1.34,4.13Z"/>
  <path class="cls-11" d="m1060.97,419.02l-6.09,3.2c-1.55-1.59-2.33-3.51-1.76-5.92.24-1.06.75-1.97,1.43-2.74l5.57,3.32c-.12.08-.24.15-.36.23-.7.49-.72.8,0,1.21.4.23.8.47,1.21.7Z"/>
  <path class="cls-10" d="m1046.82,410.59c-4.17,1.14-8.4,2.19-12.47,3.64-1.09.39-2.16.87-3.2,1.38l-5.86-5.59c.77-.42,1.55-.81,2.34-1.18,5.64-2.65,11.59-4.34,17.66-5.62,2.22-.47,4.17.78,4.6,2.87.42,2.1-.88,3.9-3.07,4.5Z"/>
  <path class="cls-10" d="m1023.89,425.55c1.05,1.01,2.21,1.95,3.43,2.77l-7.75,3.63c-.5-.44-.98-.94-1.43-1.47-4.08-4.73-4.05-10.43.1-15.1,2.01-2.26,4.43-3.95,7.04-5.35l5.86,5.59c-1.62.81-3.19,1.73-4.77,2.59-.93.51-1.74,1.33-2.47,2.12-1.69,1.81-1.8,3.53,0,5.23Z"/>
  <path class="cls-10" d="m1046.36,410.77c-4.11,1.13-8.28,2.16-12.29,3.58-1.07.38-2.13.86-3.16,1.36l-5.78-5.5c.76-.41,1.53-.8,2.31-1.16,5.56-2.61,11.42-4.28,17.4-5.54,2.18-.46,4.11.77,4.53,2.83.41,2.07-.86,3.84-3.02,4.43Z"/>
  <path class="cls-10" d="m1023.76,425.52c1.04.99,2.17,1.92,3.38,2.73l-7.63,3.58c-.49-.44-.96-.93-1.41-1.45-4.02-4.66-3.99-10.28.1-14.88,1.98-2.23,4.37-3.89,6.94-5.28l5.78,5.5c-1.59.8-3.15,1.7-4.7,2.55-.92.5-1.71,1.31-2.44,2.09-1.66,1.78-1.77,3.48,0,5.16Z"/>
  <path class="cls-11" d="m1061.92,415.82c-.61.35-1.23.67-1.8,1.06l-5.57-3.32c.43-.5.94-.95,1.49-1.36.98-.72,2.04-1.35,3.14-1.89,1.58-.78,3.33-.14,4.09,1.38.75,1.51.17,3.26-1.34,4.13Z"/>
  <path class="cls-11" d="m1060.97,419.02l-6.09,3.2c-1.55-1.59-2.33-3.51-1.76-5.92.24-1.06.75-1.97,1.43-2.74l5.57,3.32c-.12.08-.24.15-.36.23-.7.49-.72.8,0,1.21.4.23.8.47,1.21.7Z"/>
  <path class="cls-2" d="m1091.38,399.53c-1.75,2.94-4.44,4.44-7.96,4.18-3.39-.24-5.76-2.04-7.12-5.03-.93-2.04-.85-4.1.02-6.16.77-1.81,1.7-3.53,2.73-5.2,1.48-2.38,3.09-4.68,4.8-6.91.06-.08.12-.15.21-.26.18.23.34.43.49.63,2.11,2.81,4.11,5.7,5.8,8.77.67,1.2,1.25,2.43,1.71,3.72.06.18.12.36.17.55.55,1.99.22,3.91-.85,5.71Z"/>
  <line class="cls-3" x1="882.39" y1="362.35" x2="882.31" y2="362.33"/>
  <path class="cls-11" d="m827.39,415.82c-.61.35-1.23.67-1.8,1.06l-5.57-3.32c.43-.5.94-.95,1.49-1.36.98-.72,2.04-1.35,3.14-1.89,1.58-.78,3.33-.14,4.09,1.38.75,1.51.17,3.26-1.34,4.13Z"/>
  <path class="cls-11" d="m826.43,419.02l-6.09,3.2c-1.55-1.59-2.33-3.51-1.76-5.92.24-1.06.75-1.97,1.43-2.74l5.57,3.32c-.12.08-.24.15-.36.23-.7.49-.72.8,0,1.21.4.23.8.47,1.21.7Z"/>
  <path class="cls-10" d="m812.28,410.59c-4.17,1.14-8.4,2.19-12.47,3.64-1.09.39-2.16.87-3.2,1.38l-5.86-5.59c.77-.42,1.55-.81,2.34-1.18,5.64-2.65,11.59-4.34,17.66-5.62,2.22-.47,4.17.78,4.6,2.87.42,2.1-.88,3.9-3.07,4.5Z"/>
  <path class="cls-10" d="m789.35,425.55c1.05,1.01,2.21,1.95,3.43,2.77l-7.75,3.63c-.5-.44-.98-.94-1.43-1.47-4.08-4.73-4.05-10.43.1-15.1,2.01-2.26,4.43-3.95,7.04-5.35l5.86,5.59c-1.62.81-3.19,1.73-4.77,2.59-.93.51-1.74,1.33-2.47,2.12-1.69,1.81-1.8,3.53,0,5.23Z"/>
  <path class="cls-10" d="m811.82,410.77c-4.11,1.13-8.28,2.16-12.29,3.58-1.07.38-2.13.86-3.16,1.36l-5.78-5.5c.76-.41,1.53-.8,2.31-1.16,5.56-2.61,11.42-4.28,17.4-5.54,2.18-.46,4.11.77,4.53,2.83.41,2.07-.86,3.84-3.02,4.43Z"/>
  <path class="cls-10" d="m789.22,425.52c1.04.99,2.17,1.92,3.38,2.73l-7.63,3.58c-.49-.44-.96-.93-1.41-1.45-4.02-4.66-3.99-10.28.1-14.88,1.98-2.23,4.37-3.89,6.94-5.28l5.78,5.5c-1.59.8-3.15,1.7-4.7,2.55-.92.5-1.71,1.31-2.44,2.09-1.66,1.78-1.77,3.48,0,5.16Z"/>
  <path class="cls-11" d="m827.39,415.82c-.61.35-1.23.67-1.8,1.06l-5.57-3.32c.43-.5.94-.95,1.49-1.36.98-.72,2.04-1.35,3.14-1.89,1.58-.78,3.33-.14,4.09,1.38.75,1.51.17,3.26-1.34,4.13Z"/>
  <path class="cls-11" d="m826.43,419.02l-6.09,3.2c-1.55-1.59-2.33-3.51-1.76-5.92.24-1.06.75-1.97,1.43-2.74l5.57,3.32c-.12.08-.24.15-.36.23-.7.49-.72.8,0,1.21.4.23.8.47,1.21.7Z"/>
  <path class="cls-2" d="m857.69,393.81c-.05-.18-.11-.36-.17-.55-.46-1.29-1.04-2.52-1.7-3.72-1.69-3.07-3.69-5.95-5.81-8.77-.15-.2-.31-.4-.49-.63-.09.11-.15.18-.21.26-1.71,2.23-3.32,4.53-4.8,6.92-1.03,1.67-1.97,3.39-2.73,5.19-.87,2.06-.95,4.12-.02,6.16,1.36,3,3.73,4.79,7.12,5.04,3.52.26,6.21-1.24,7.96-4.18,1.07-1.8,1.4-3.72.85-5.71Zm-2.25,2.41c-.3.82-.72,1.58-1.26,2.28-.8,1.06-1.81,1.89-3,2.51-.15.08-.33.14-.49.14-.26,0-.43-.17-.5-.42-.06-.26.06-.47.32-.63.54-.35,1.1-.66,1.6-1.06,1.03-.83,1.75-1.9,2.21-3.11.1-.27.25-.49.54-.5.47,0,.72.37.57.79Z"/>
  <path class="cls-10" d="m809.18,434.78l-3.88,6.68c-4.99-1.31-9.87-3.01-14.47-5.48-2.09-1.12-4.07-2.4-5.8-4.04l7.63-3.58c.61.41,1.23.79,1.87,1.14,4.61,2.51,9.59,4.08,14.66,5.28Z"/>
  <path class="cls-10" d="m828.97,438.06l-.74,7.38h0c-5.37-.54-10.7-1.31-16.01-2.38-2.32-.47-4.63-.99-6.91-1.59l3.88-6.68c1.18.28,2.38.55,3.58.8,5.38,1.13,10.78,1.93,16.21,2.47Z"/>
  <text class="cls-9" transform="translate(110.68 218.14)"><tspan x="0" y="0">China</tspan></text>
  <text class="cls-9" transform="translate(325.61 218.62)"><tspan x="0" y="0">Bangladesh</tspan></text>
  <text class="cls-9" transform="translate(532.22 218.06)"><tspan x="0" y="0">República Democrática </tspan><tspan x="48.46" y="16.8">del Congo</tspan></text>
  <text class="cls-9" transform="translate(790.6 218.06)"><tspan x="0" y="0">Estados Unidos</tspan></text>
  <text class="cls-9" transform="translate(1052.93 218.14)"><tspan x="0" y="0">Turquía</tspan></text>
  <text class="cls-9" transform="translate(113.2 470.05)"><tspan x="0" y="0">Mexico</tspan></text>
  <text class="cls-9" transform="translate(351.58 470.14)"><tspan x="0" y="0">Sudán</tspan></text>
  <text class="cls-9" transform="translate(599.3 470.05)"><tspan x="0" y="0">Irán</tspan></text>
  <text class="cls-9" transform="translate(792.19 470.05)"><tspan x="0" y="0">Arabia Saudita</tspan></text>
  <text class="cls-9" transform="translate(1060.97 470.14)"><tspan x="0" y="0">Etiopía</tspan></text>
  <line class="cls-7" x1="262.67" y1="19.67" x2="262.67" y2="524.87"/>
  <line class="cls-7" x1="498.4" y1="19.67" x2="498.4" y2="524.87"/>
  <line class="cls-7" x1="734.13" y1="19.67" x2="734.13" y2="524.87"/>
  <line class="cls-7" x1="969.85" y1="19.67" x2="969.85" y2="524.87"/>
  <line class="cls-7" x1="27.2" y1="283.96" x2="1198.4" y2="283.96"/>
</svg>